# Blender v2.81 (sub 16) OBJ File: 'untitled.blend'
# www.blender.org
mtllib face.mtl
o Cube
v 2.620020 0.000000 1.000000
v 4.255448 0.000000 1.000000
v 3.556662 0.000000 -1.000000
v 1.786528 0.000000 -1.000000
v 1.000000 0.000000 -0.037189
v 1.003494 -0.999000 -1.037401
v 1.003494 1.001000 -1.037401
v 1.003494 -0.999000 0.962598
v 1.003494 1.001000 0.962598
v -0.996506 -0.999000 -0.037401
v 1.003494 -0.999000 -0.037402
vt 1.000000 0.000000
vt 1.000000 0.000000
vt 1.000000 1.000000
vt 0.000000 0.000000
vt 0.000000 0.000000
vt 0.000000 0.000000
vt 0.000000 0.000000
vt 0.000000 0.000000
vt 0.000000 0.000000
vt 0.000000 0.000000
vt 0.000000 1.000000
vt 1.000000 1.000000
vn 0.0000 1.0000 0.0000
vn 0.0000 -1.0000 0.0000
vn -1.0000 0.0000 0.0035
vn 0.0000 -0.0002 1.0000
vn -1.0000 0.0000 -0.0035
usemtl Material
s off
f 1/1/1 2/2/1 3/3/1
f 5/4/2 4/5/2 1/6/2
f 9/7/3 5/4/3 8/8/3
f 11/9/4 5/4/4 10/10/4
f 7/11/5 6/12/5 5/4/5
